Format : MPEG-4
Format profile : Base Media
Codec ID : isom
File size : 1.64 GiB
Duration : 2h 24mn
Overall bit rate : 1 627 Kbps

Video #1
Format : AVC
Format/Info : Advanced Video Codec
Format profile : High@L3.0
Format settings, CABAC : Yes
Format settings, ReFrames : 4 frames
Codec ID : avc1
Codec ID/Info : Advanced Video Coding
Duration : 2h 24mn
Bit rate mode : Variable
Bit rate : 1 461 Kbps
Width : 704 pixels
Height : 400 pixels
Display aspect ratio : 16/9
Frame rate mode : Constant
Frame rate : 25.000 fps
Resolution : 24 bits
Colorimetry : 4:2:0
Scan type : Progressive
Bits/(Pixel*Frame) : 0.207
Stream size : 1.47 GiB (90%)

Audio #2
Format : AAC
Format/Info : Advanced Audio Codec
Format version : Version 4
Format profile : LC
Format settings, SBR : No
Codec ID : 40
Duration : 2h 24mn
Bit rate mode : Variable
Bit rate : 160 Kbps
Channel(s) : 2 channels
Channel positions : L R
Sampling rate : 48.0 KHz
Resolution : 16 bits
Stream size : 165 MiB (10%)